<?xml version="1.0" standalone="no"?>
<!DOCTYPE svg PUBLIC "-//W3C//DTD SVG 20010904//EN"
 "http://www.w3.org/TR/2001/REC-SVG-20010904/DTD/svg10.dtd">
<svg version="1.0" xmlns="http://www.w3.org/2000/svg"
 width="270.000000pt" height="270.000000pt" viewBox="0 0 270.000000 270.000000"
 preserveAspectRatio="xMidYMid meet">
<metadata>
Created by potrace 1.11, written by Peter Selinger 2001-2013
</metadata>
<g transform="translate(0.000000,270.000000) scale(0.100000,-0.100000)"
fill="#000000" stroke="none">
<path d="M0 1350 l0 -1350 1350 0 1350 0 0 1350 0 1350 -1350 0 -1350 0 0
-1350z m1510 723 c44 -10 64 -16 108 -34 290 -117 472 -384 472 -690 0 -137
-49 -299 -121 -401 -32 -44 -26 -48 69 -48 152 0 257 60 313 180 34 69 32 198
-3 265 -30 56 -65 97 -120 139 -23 17 -38 37 -38 50 0 11 -14 48 -30 81 -16
32 -27 62 -24 66 5 9 81 -6 137 -28 130 -51 258 -191 295 -320 7 -24 17 -60
23 -81 12 -41 8 -141 -9 -207 -17 -70 -47 -134 -92 -196 -86 -118 -190 -185
-355 -226 -48 -11 -1657 -15 -1669 -3 -5 5 -20 10 -33 10 -30 0 -119 41 -170
78 -63 47 -143 173 -143 227 0 13 -5 27 -10 30 -13 8 -13 119 0 162 6 18 15
50 21 71 51 179 219 310 415 325 68 4 84 11 84 34 0 28 76 177 123 240 88 119
243 221 392 261 22 6 56 15 75 21 42 11 226 8 290 -6z"/>
<path d="M1218 1785 c-121 -34 -234 -106 -301 -193 -37 -49 -83 -153 -108
-245 -8 -27 -18 -46 -25 -43 -6 2 -45 10 -87 17 -67 11 -85 11 -151 -5 -136
-32 -196 -102 -196 -231 0 -82 30 -133 96 -164 42 -20 60 -21 503 -21 l459 0
73 25 c92 31 171 85 219 150 47 62 53 74 79 154 30 93 25 191 -15 296 -27 70
-113 166 -195 217 -85 53 -243 72 -351 43z"/>
</g>
</svg>
